<?xml version="1.0" encoding="UTF-8"?>
<svg width="1760px" height="630px" viewBox="0 0 1760 630" version="1.1" xmlns="http://www.w3.org/2000/svg" xmlns:xlink="http://www.w3.org/1999/xlink">
    <!-- Generator: Sketch 49.3 (51167) - http://www.bohemiancoding.com/sketch -->
    <title>ts-evaluator-logo</title>
    <desc>Created with Sketch.</desc>
    <defs></defs>
    <g id="Page-1" stroke="none" stroke-width="1" fill="none" fill-rule="evenodd">
        <g id="ts-evaluator-logo" fill="#005C9A">
            <path d="M0,315 L0,630 L630,630 L630,0 L0,0 L0,315 Z M507.7,289.9 C523.7,293.9 535.9,301 547.1,312.6 C552.9,318.8 561.5,330.1 562.2,332.8 C562.4,333.6 535,352 518.4,362.3 C517.8,362.7 515.4,360.1 512.7,356.1 C504.6,344.3 496.1,339.2 483.1,338.3 C464,337 451.7,347 451.8,363.7 C451.8,368.6 452.5,371.5 454.5,375.5 C458.7,384.2 466.5,389.4 491,400 C536.1,419.4 555.4,432.2 567.4,450.4 C581.047297,473.668449 583.719079,501.777065 574.7,527.2 C564.7,553.4 539.9,571.2 505,577.1 C489.041482,578.930438 472.916925,578.762474 457,576.6 C431.7,572.1 407.7,559.6 392.9,543.2 C387.1,536.8 375.8,520.1 376.5,518.9 C376.8,518.5 379.4,516.9 382.3,515.2 L405.7,501.7 L423.8,491.2 L427.6,496.8 C433.981095,505.932571 442.103193,513.714832 451.5,519.7 C471.6,530.3 499.2,528.8 512.8,516.6 C518.33412,511.925689 521.36725,504.934694 521,497.7 C521.490026,491.966504 519.813034,486.257597 516.3,481.7 C511.4,474.7 501.4,468.8 473,456.5 C440.5,442.5 426.5,433.8 413.7,420 C405.702069,410.889434 399.796999,400.137427 396.4,388.5 C394,379.6 393.4,357.3 395.3,348.3 C402,316.9 425.7,295 459.9,288.5 C471,286.4 496.8,287.2 507.7,289.9 Z M359.8,316.2 L360,342 L278,342 L278,575 L220,575 L220,342 L138,342 L138,316.7 C138,302.7 138.3,291 138.7,290.7 C139,290.3 188.9,290.1 249.4,290.2 L359.5,290.5 L359.8,316.2 Z" id="Shape" fill-rule="nonzero"></path>
            <path d="M749.546875,543.273438 C752.216159,543.273438 754.755196,542.882816 757.164062,542.101562 C759.572929,541.320309 761.688793,540.213549 763.511719,538.78125 C765.334645,537.348951 766.750646,535.623708 767.759766,533.605469 C768.768885,531.587229 769.208334,529.341158 769.078125,526.867188 L794.664062,526.867188 C794.794271,532.335965 793.671236,537.414039 791.294922,542.101562 C788.918608,546.789086 785.679708,550.825504 781.578125,554.210938 C777.476542,557.596371 772.707709,560.249339 767.271484,562.169922 C761.835259,564.090504 756.089874,565.050781 750.035156,565.050781 C741.83199,565.050781 734.638052,563.667332 728.453125,560.900391 C722.268198,558.13345 717.108745,554.34117 712.974609,549.523438 C708.840474,544.705705 705.715505,539.057975 703.599609,532.580078 C701.483713,526.102181 700.425781,519.152381 700.425781,511.730469 L700.425781,508.800781 C700.425781,501.378869 701.467437,494.429069 703.550781,487.951172 C705.634125,481.473275 708.759094,475.825545 712.925781,471.007812 C717.092469,466.19008 722.251922,462.381524 728.404297,459.582031 C734.556671,456.782538 741.701782,455.382812 749.839844,455.382812 C756.350293,455.382812 762.372368,456.359365 767.90625,458.3125 C773.440132,460.265635 778.208964,463.016258 782.212891,466.564453 C786.216817,470.112648 789.32551,474.40948 791.539062,479.455078 C793.752615,484.500676 794.794271,490.148406 794.664062,496.398438 L769.078125,496.398438 C769.208334,493.794258 768.817713,491.320324 767.90625,488.976562 C766.994787,486.632801 765.660165,484.614592 763.902344,482.921875 C762.144522,481.229158 760.028658,479.87826 757.554688,478.869141 C755.080717,477.860021 752.378921,477.355469 749.449219,477.355469 C745.152322,477.355469 741.604181,478.234366 738.804688,479.992188 C736.005194,481.750009 733.775399,484.093735 732.115234,487.023438 C730.45507,489.95314 729.283207,493.305971 728.599609,497.082031 C727.916012,500.858092 727.574219,504.764303 727.574219,508.800781 L727.574219,511.730469 C727.574219,515.832052 727.899736,519.78709 728.550781,523.595703 C729.201826,527.404316 730.357414,530.757147 732.017578,533.654297 C733.677743,536.551447 735.923814,538.878897 738.755859,540.636719 C741.587905,542.39454 745.184874,543.273438 749.546875,543.273438 Z M828.453125,413 L887.535156,413 L887.535156,540.929688 L917.808594,540.929688 L917.808594,563 L828.453125,563 L828.453125,540.929688 L860.09375,540.929688 L860.09375,435.167969 L828.453125,435.167969 L828.453125,413 Z M939.097656,509.191406 C939.097656,501.509076 940.204416,494.396517 942.417969,487.853516 C944.631521,481.310514 947.870421,475.630232 952.134766,470.8125 C956.39911,465.994768 961.607391,462.218764 967.759766,459.484375 C973.91214,456.749986 980.959596,455.382812 988.902344,455.382812 C996.845092,455.382812 1003.90882,456.749986 1010.09375,459.484375 C1016.27868,462.218764 1021.50323,465.994768 1025.76758,470.8125 C1030.03192,475.630232 1033.27082,481.310514 1035.48438,487.853516 C1037.69793,494.396517 1038.80469,501.509076 1038.80469,509.191406 L1038.80469,511.242188 C1038.80469,518.989622 1037.69793,526.134733 1035.48438,532.677734 C1033.27082,539.220736 1030.0482,544.901018 1025.81641,549.71875 C1021.58461,554.536482 1016.37633,558.29621 1010.19141,560.998047 C1004.00648,563.699883 996.9753,565.050781 989.097656,565.050781 C981.154908,565.050781 974.074901,563.699883 967.857422,560.998047 C961.639943,558.29621 956.39911,554.536482 952.134766,549.71875 C947.870421,544.901018 944.631521,539.220736 942.417969,532.677734 C940.204416,526.134733 939.097656,518.989622 939.097656,511.242188 L939.097656,509.191406 Z M966.246094,511.242188 C966.246094,515.669293 966.669267,519.819642 967.515625,523.693359 C968.361983,527.567077 969.696605,530.952459 971.519531,533.849609 C973.342457,536.746759 975.702459,539.041658 978.599609,540.734375 C981.496759,542.427092 984.996073,543.273438 989.097656,543.273438 C993.06903,543.273438 996.486965,542.427092 999.351562,540.734375 C1002.21616,539.041658 1004.54361,536.746759 1006.33398,533.849609 C1008.12436,530.952459 1009.4427,527.567077 1010.28906,523.693359 C1011.13542,519.819642 1011.55859,515.669293 1011.55859,511.242188 L1011.55859,509.191406 C1011.55859,504.89451 1011.13542,500.82554 1010.28906,496.984375 C1009.4427,493.14321 1008.12436,489.757827 1006.33398,486.828125 C1004.54361,483.898423 1002.21616,481.587248 999.351562,479.894531 C996.486965,478.201814 993.003927,477.355469 988.902344,477.355469 C984.865865,477.355469 981.415379,478.201814 978.550781,479.894531 C975.686184,481.587248 973.342457,483.898423 971.519531,486.828125 C969.696605,489.757827 968.361983,493.14321 967.515625,496.984375 C966.669267,500.82554 966.246094,504.89451 966.246094,509.191406 L966.246094,511.242188 Z M1087.4375,457.335938 L1089.09766,471.984375 C1092.87372,466.710911 1097.46351,462.625666 1102.86719,459.728516 C1108.27086,456.831366 1114.26038,455.382812 1120.83594,455.382812 C1126.17451,455.382812 1131.05727,456.164055 1135.48438,457.726562 C1139.91148,459.28907 1143.73631,461.77928 1146.95898,465.197266 C1150.18166,468.615251 1152.68814,473.009739 1154.47852,478.380859 C1156.26889,483.75198 1157.16406,490.278607 1157.16406,497.960938 L1157.16406,563 L1130.01562,563 L1130.01562,498.351562 C1130.01562,494.184875 1129.54362,490.750665 1128.59961,488.048828 C1127.65559,485.346992 1126.3047,483.214852 1124.54688,481.652344 C1122.78905,480.089836 1120.67319,478.999352 1118.19922,478.380859 C1115.72525,477.762367 1112.9258,477.453125 1109.80078,477.453125 C1105.17836,477.453125 1101.2396,478.38085 1097.98438,480.236328 C1094.72915,482.091806 1092.09246,484.647119 1090.07422,487.902344 L1090.07422,563 L1062.82812,563 L1062.82812,457.335938 L1087.4375,457.335938 Z M1234.11719,564.953125 C1225.97913,564.953125 1218.58988,563.618503 1211.94922,560.949219 C1205.30856,558.279935 1199.612,554.650414 1194.85938,550.060547 C1190.10675,545.47068 1186.44467,540.067088 1183.87305,533.849609 C1181.30142,527.63213 1180.01562,520.975296 1180.01562,513.878906 L1180.01562,509.972656 C1180.01562,501.899699 1181.28514,494.526726 1183.82422,487.853516 C1186.36329,481.180305 1189.91144,475.43492 1194.46875,470.617188 C1199.02606,465.799455 1204.42966,462.056003 1210.67969,459.386719 C1216.92972,456.717435 1223.73304,455.382812 1231.08984,455.382812 C1238.70707,455.382812 1245.49411,456.636055 1251.45117,459.142578 C1257.40823,461.649101 1262.45376,465.180967 1266.58789,469.738281 C1270.72203,474.295596 1273.86327,479.780567 1276.01172,486.193359 C1278.16017,492.606152 1279.23438,499.686159 1279.23438,507.433594 L1279.23438,518.957031 L1207.55469,518.957031 C1208.07552,522.537778 1209.13346,525.80923 1210.72852,528.771484 C1212.32358,531.733739 1214.35806,534.289052 1216.83203,536.4375 C1219.306,538.585948 1222.138,540.246088 1225.32812,541.417969 C1228.51825,542.58985 1232.00128,543.175781 1235.77734,543.175781 C1238.44663,543.175781 1241.0996,542.915367 1243.73633,542.394531 C1246.37306,541.873695 1248.89582,541.108729 1251.30469,540.099609 C1253.71355,539.09049 1255.95962,537.837247 1258.04297,536.339844 C1260.12631,534.84244 1261.94921,533.084646 1263.51172,531.066406 L1277.08594,545.714844 C1275.39322,548.12371 1273.19598,550.483712 1270.49414,552.794922 C1267.7923,555.106131 1264.60223,557.156892 1260.92383,558.947266 C1257.24542,560.737639 1253.16018,562.186192 1248.66797,563.292969 C1244.17576,564.399745 1239.32555,564.953125 1234.11719,564.953125 Z M1230.89453,477.355469 C1227.83462,477.355469 1225.03517,477.892573 1222.49609,478.966797 C1219.95702,480.041021 1217.72722,481.587229 1215.80664,483.605469 C1213.88606,485.623708 1212.27475,488.032538 1210.97266,490.832031 C1209.67057,493.631524 1208.69401,496.756493 1208.04297,500.207031 L1252.57422,500.207031 L1252.57422,498.058594 C1252.44401,495.193996 1251.89063,492.4922 1250.91406,489.953125 C1249.9375,487.41405 1248.53777,485.216806 1246.71484,483.361328 C1244.89192,481.50585 1242.66212,480.041021 1240.02539,478.966797 C1237.38866,477.892573 1234.34507,477.355469 1230.89453,477.355469 Z M1395.64062,563 L1368.29688,563 L1328.74609,471.300781 L1328.74609,563 L1301.10938,563 L1301.10938,420.8125 L1328.74609,420.8125 L1368.00391,512.121094 L1368.10156,420.8125 L1395.64062,420.8125 L1395.64062,563 Z M1419.17578,509.191406 C1419.17578,501.509076 1420.28254,494.396517 1422.49609,487.853516 C1424.70965,481.310514 1427.94855,475.630232 1432.21289,470.8125 C1436.47723,465.994768 1441.68552,462.218764 1447.83789,459.484375 C1453.99027,456.749986 1461.03772,455.382812 1468.98047,455.382812 C1476.92322,455.382812 1483.98695,456.749986 1490.17188,459.484375 C1496.3568,462.218764 1501.58136,465.994768 1505.8457,470.8125 C1510.11005,475.630232 1513.34895,481.310514 1515.5625,487.853516 C1517.77605,494.396517 1518.88281,501.509076 1518.88281,509.191406 L1518.88281,511.242188 C1518.88281,518.989622 1517.77605,526.134733 1515.5625,532.677734 C1513.34895,539.220736 1510.12632,544.901018 1505.89453,549.71875 C1501.66274,554.536482 1496.45446,558.29621 1490.26953,560.998047 C1484.0846,563.699883 1477.05342,565.050781 1469.17578,565.050781 C1461.23303,565.050781 1454.15303,563.699883 1447.93555,560.998047 C1441.71807,558.29621 1436.47723,554.536482 1432.21289,549.71875 C1427.94855,544.901018 1424.70965,539.220736 1422.49609,532.677734 C1420.28254,526.134733 1419.17578,518.989622 1419.17578,511.242188 L1419.17578,509.191406 Z M1446.32422,511.242188 C1446.32422,515.669293 1446.74739,519.819642 1447.59375,523.693359 C1448.44011,527.567077 1449.77473,530.952459 1451.59766,533.849609 C1453.42058,536.746759 1455.78058,539.041658 1458.67773,540.734375 C1461.57488,542.427092 1465.0742,543.273438 1469.17578,543.273438 C1473.14716,543.273438 1476.56509,542.427092 1479.42969,540.734375 C1482.29429,539.041658 1484.62174,536.746759 1486.41211,533.849609 C1488.20248,530.952459 1489.52083,527.567077 1490.36719,523.693359 C1491.21355,519.819642 1491.63672,515.669293 1491.63672,511.242188 L1491.63672,509.191406 C1491.63672,504.89451 1491.21355,500.82554 1490.36719,496.984375 C1489.52083,493.14321 1488.20248,489.757827 1486.41211,486.828125 C1484.62174,483.898423 1482.29429,481.587248 1479.42969,479.894531 C1476.56509,478.201814 1473.08205,477.355469 1468.98047,477.355469 C1464.94399,477.355469 1461.4935,478.201814 1458.62891,479.894531 C1455.76431,481.587248 1453.42058,483.898423 1451.59766,486.828125 C1449.77473,489.757827 1448.44011,493.14321 1447.59375,496.984375 C1446.74739,500.82554 1446.32422,504.89451 1446.32422,509.191406 L1446.32422,511.242188 Z M1540.07422,509.386719 C1540.07422,501.378866 1541.00194,494.054721 1542.85742,487.414062 C1544.7129,480.773404 1547.43097,475.076847 1551.01172,470.324219 C1554.59247,465.571591 1558.93813,461.893242 1564.04883,459.289062 C1569.15953,456.684883 1575.00257,455.382812 1581.57812,455.382812 C1587.11201,455.382812 1591.97849,456.375641 1596.17773,458.361328 C1600.37697,460.347015 1604.10415,463.162742 1607.35938,466.808594 L1607.35938,413 L1634.60547,413 L1634.60547,563 L1610.09375,563 L1608.72656,551.964844 C1605.40623,556.066427 1601.50002,559.256499 1597.00781,561.535156 C1592.5156,563.813813 1587.30732,564.953125 1581.38281,564.953125 C1574.93747,564.953125 1569.15953,563.602227 1564.04883,560.900391 C1558.93813,558.198554 1554.60874,554.471378 1551.06055,549.71875 C1547.51235,544.966122 1544.79428,539.318392 1542.90625,532.775391 C1541.01822,526.232389 1540.07422,519.11983 1540.07422,511.4375 L1540.07422,509.386719 Z M1567.22266,511.4375 C1567.22266,515.864605 1567.597,519.982403 1568.3457,523.791016 C1569.0944,527.599628 1570.3151,530.919908 1572.00781,533.751953 C1573.70053,536.583999 1575.8815,538.813794 1578.55078,540.441406 C1581.22007,542.069019 1584.47524,542.882812 1588.31641,542.882812 C1593.00393,542.882812 1596.89386,541.873708 1599.98633,539.855469 C1603.07879,537.837229 1605.53645,535.07033 1607.35938,531.554688 L1607.35938,488.78125 C1605.53645,485.200503 1603.09507,482.417328 1600.03516,480.431641 C1596.97525,478.445954 1593.13414,477.453125 1588.51172,477.453125 C1584.67055,477.453125 1581.3991,478.283195 1578.69727,479.943359 C1575.99543,481.603524 1573.79819,483.882147 1572.10547,486.779297 C1570.41275,489.676447 1569.17579,493.06183 1568.39453,496.935547 C1567.61328,500.809264 1567.22266,504.959613 1567.22266,509.386719 L1567.22266,511.4375 Z M1714.19531,564.953125 C1706.05725,564.953125 1698.668,563.618503 1692.02734,560.949219 C1685.38669,558.279935 1679.69013,554.650414 1674.9375,550.060547 C1670.18487,545.47068 1666.5228,540.067088 1663.95117,533.849609 C1661.37954,527.63213 1660.09375,520.975296 1660.09375,513.878906 L1660.09375,509.972656 C1660.09375,501.899699 1661.36327,494.526726 1663.90234,487.853516 C1666.44142,481.180305 1669.98956,475.43492 1674.54688,470.617188 C1679.10419,465.799455 1684.50778,462.056003 1690.75781,459.386719 C1697.00784,456.717435 1703.81116,455.382812 1711.16797,455.382812 C1718.78519,455.382812 1725.57224,456.636055 1731.5293,459.142578 C1737.48636,461.649101 1742.53188,465.180967 1746.66602,469.738281 C1750.80015,474.295596 1753.9414,479.780567 1756.08984,486.193359 C1758.23829,492.606152 1759.3125,499.686159 1759.3125,507.433594 L1759.3125,518.957031 L1687.63281,518.957031 C1688.15365,522.537778 1689.21158,525.80923 1690.80664,528.771484 C1692.4017,531.733739 1694.43619,534.289052 1696.91016,536.4375 C1699.38413,538.585948 1702.21613,540.246088 1705.40625,541.417969 C1708.59637,542.58985 1712.07941,543.175781 1715.85547,543.175781 C1718.52475,543.175781 1721.17772,542.915367 1723.81445,542.394531 C1726.45119,541.873695 1728.97395,541.108729 1731.38281,540.099609 C1733.79168,539.09049 1736.03775,537.837247 1738.12109,536.339844 C1740.20444,534.84244 1742.02734,533.084646 1743.58984,531.066406 L1757.16406,545.714844 C1755.47135,548.12371 1753.2741,550.483712 1750.57227,552.794922 C1747.87043,555.106131 1744.68036,557.156892 1741.00195,558.947266 C1737.32355,560.737639 1733.2383,562.186192 1728.74609,563.292969 C1724.25388,564.399745 1719.40367,564.953125 1714.19531,564.953125 Z M1710.97266,477.355469 C1707.91275,477.355469 1705.11329,477.892573 1702.57422,478.966797 C1700.03514,480.041021 1697.80535,481.587229 1695.88477,483.605469 C1693.96418,485.623708 1692.35287,488.032538 1691.05078,490.832031 C1689.74869,493.631524 1688.77214,496.756493 1688.12109,500.207031 L1732.65234,500.207031 L1732.65234,498.058594 C1732.52213,495.193996 1731.96875,492.4922 1730.99219,489.953125 C1730.01562,487.41405 1728.61589,485.216806 1726.79297,483.361328 C1724.97004,481.50585 1722.74025,480.041021 1720.10352,478.966797 C1717.46678,477.892573 1714.42319,477.355469 1710.97266,477.355469 Z" id="cloneNode"></path>
        </g>
    </g>
</svg>